<svg 
  xmlns="http://www.w3.org/2000/svg"
  xmlns:xlink="http://www.w3.org/1999/xlink"
  width="30px" height="40px"
>
  <path fill-rule="evenodd"  fill="rgb(255, 255, 255)"
    d="M0.978,5.528 L0.978,30.869 C0.978,33.383 3.026,35.428 5.543,35.428 L7.482,35.428 L7.482,39.851 L11.666,37.970 L15.850,39.851 L15.850,35.428 L29.963,35.428 L29.963,0.969 L5.543,0.969 C3.026,0.969 0.978,3.014 0.978,5.528 ZM13.569,36.327 L11.666,35.472 L9.763,36.327 L9.763,33.148 L13.569,33.148 L13.569,36.327 ZM27.683,33.150 L15.850,33.150 L15.850,30.870 L7.482,30.870 L7.482,33.150 L5.543,33.150 C4.284,33.150 3.259,32.127 3.259,30.869 C3.259,29.612 4.284,28.588 5.543,28.588 L27.683,28.588 L27.683,33.150 ZM27.683,26.310 L5.543,26.310 C4.711,26.310 3.931,26.535 3.259,26.925 L3.259,5.528 C3.259,4.270 4.284,3.247 5.543,3.247 L27.683,3.247 L27.683,26.310 L27.683,26.310 Z"/>
</svg>