<svg 
  xmlns="http://www.w3.org/2000/svg"
  xmlns:xlink="http://www.w3.org/1999/xlink"
  width="29px" height="39px"
>
  <path fill-rule="evenodd"  fill="rgb(255, 255, 255)"
    d="M14.879,34.571 L14.879,39.008 L10.695,37.121 L6.511,39.008 L6.511,34.571 L4.572,34.571 C2.055,34.571 0.008,32.519 0.008,29.997 L0.008,4.574 C0.008,2.052 2.055,-0.000 4.572,-0.000 L28.992,-0.000 L28.992,34.571 L14.879,34.571 ZM8.792,35.473 L10.695,34.615 L12.598,35.473 L12.598,32.284 L8.792,32.284 L8.792,35.473 ZM26.711,2.285 L4.572,2.285 C3.313,2.285 2.289,3.312 2.289,4.574 L2.289,26.040 C2.961,25.649 3.740,25.424 4.572,25.424 L26.711,25.424 L26.711,2.285 ZM26.711,27.709 L4.572,27.709 C3.313,27.709 2.289,28.736 2.289,29.997 C2.289,31.259 3.313,32.286 4.572,32.286 L6.511,32.286 L6.511,29.998 L14.879,29.998 L14.879,32.286 L26.711,32.286 L26.711,27.709 ZM9.537,10.497 L8.316,9.274 L9.928,7.658 L11.149,8.881 C11.805,8.436 12.554,8.119 13.359,7.963 L13.359,6.234 L15.640,6.234 L15.640,7.963 C16.446,8.119 17.194,8.436 17.850,8.881 L19.071,7.658 L20.684,9.274 L19.463,10.497 C19.907,11.155 20.224,11.905 20.380,12.712 L22.105,12.712 L22.105,14.997 L20.380,14.997 C20.224,15.804 19.907,16.554 19.463,17.212 L20.684,18.435 L19.071,20.051 L17.850,18.828 C17.194,19.273 16.446,19.590 15.640,19.746 L15.640,21.475 L13.359,21.475 L13.359,19.746 C12.554,19.590 11.805,19.273 11.149,18.828 L9.928,20.051 L8.316,18.435 L9.537,17.212 C9.092,16.554 8.776,15.804 8.620,14.997 L6.894,14.997 L6.894,12.712 L8.620,12.712 C8.776,11.905 9.092,11.155 9.537,10.497 ZM14.500,17.571 C16.545,17.571 18.209,15.904 18.209,13.855 C18.209,11.805 16.545,10.138 14.500,10.138 C12.454,10.138 10.790,11.805 10.790,13.855 C10.790,15.904 12.454,17.571 14.500,17.571 Z"/>
</svg>