<svg 
  xmlns="http://www.w3.org/2000/svg"
  xmlns:xlink="http://www.w3.org/1999/xlink"
  width="60px" height="79px"
>
  <path fill-rule="evenodd"  fill="rgb(128, 63, 151)"
    d="M30.288,69.998 L30.288,78.981 L21.769,75.161 L13.250,78.981 L13.250,69.998 L9.302,69.998 C4.178,69.998 0.009,65.844 0.009,60.739 L0.009,9.268 C0.009,4.162 4.178,0.009 9.302,0.009 L59.022,0.009 L59.022,69.998 L30.288,69.998 ZM17.894,71.824 L21.769,70.087 L25.644,71.824 L25.644,65.368 L17.894,65.368 L17.894,71.824 ZM54.378,4.635 L9.302,4.635 C6.739,4.635 4.653,6.714 4.653,9.268 L4.653,52.727 C6.022,51.935 7.609,51.479 9.302,51.479 L54.378,51.479 L54.378,4.635 ZM54.378,56.106 L9.302,56.106 C6.739,56.106 4.653,58.184 4.653,60.739 C4.653,63.293 6.739,65.371 9.302,65.371 L13.250,65.371 L13.250,60.740 L30.288,60.740 L30.288,65.371 L54.378,65.371 L54.378,56.106 ZM19.410,21.261 L16.924,18.784 L20.208,15.512 L22.694,17.989 C24.030,17.088 25.554,16.446 27.194,16.129 L27.194,12.629 L31.838,12.629 L31.838,16.129 C33.477,16.446 35.002,17.088 36.337,17.989 L38.823,15.512 L42.107,18.784 L39.621,21.261 C40.525,22.591 41.170,24.110 41.487,25.744 L45.001,25.744 L45.001,30.371 L41.487,30.371 C41.170,32.005 40.525,33.523 39.621,34.854 L42.107,37.331 L38.823,40.603 L36.337,38.126 C35.002,39.027 33.477,39.669 31.838,39.985 L31.838,43.486 L27.194,43.486 L27.194,39.985 C25.554,39.669 24.030,39.027 22.694,38.126 L20.208,40.603 L16.924,37.331 L19.410,34.854 C18.506,33.523 17.861,32.005 17.544,30.371 L14.031,30.371 L14.031,25.744 L17.544,25.744 C17.861,24.110 18.506,22.591 19.410,21.261 ZM29.515,35.582 C33.680,35.582 37.068,32.206 37.068,28.057 C37.068,23.908 33.680,20.533 29.515,20.533 C25.351,20.533 21.963,23.908 21.963,28.057 C21.963,32.206 25.351,35.582 29.515,35.582 Z"/>
</svg>