<svg 
    xmlns="http://www.w3.org/2000/svg"
    xmlns:xlink="http://www.w3.org/1999/xlink"
    width="25px" height="25px"
>
    <path fill-rule="evenodd"  fill="rgb(255, 255, 255)"
        d="M-0.001,24.997 L-0.001,7.310 L-0.001,3.523 L7.749,3.523 C7.953,1.547 9.489,0.005 11.349,0.005 L13.647,0.005 C15.506,0.005 17.042,1.547 17.246,3.523 L24.996,3.523 L24.996,7.310 L24.996,24.997 L-0.001,24.997 ZM13.647,1.615 L11.349,1.615 C10.302,1.615 9.427,2.437 9.235,3.523 L15.760,3.523 C15.569,2.437 14.694,1.615 13.647,1.615 ZM23.526,5.133 L1.470,5.133 L1.470,7.310 C1.470,10.248 3.653,12.639 6.338,12.639 L18.658,12.639 C21.342,12.639 23.526,10.248 23.526,7.310 L23.526,5.133 ZM11.242,14.248 L11.242,14.531 C11.242,15.166 11.715,15.684 12.296,15.684 L12.700,15.684 C13.281,15.684 13.754,15.166 13.754,14.531 L13.754,14.248 L11.242,14.248 ZM23.526,11.748 C22.362,13.275 20.612,14.248 18.658,14.248 L15.224,14.248 L15.224,14.531 C15.224,16.054 14.092,17.294 12.700,17.294 L12.296,17.294 C10.904,17.294 9.771,16.054 9.771,14.531 L9.771,14.248 L6.338,14.248 C4.384,14.248 2.633,13.275 1.470,11.748 L1.470,23.387 L23.526,23.387 L23.526,11.748 ZM15.308,20.903 L9.688,20.903 L9.688,19.293 L15.308,19.293 L15.308,20.903 Z"/>
</svg>