<svg 
  xmlns="http://www.w3.org/2000/svg"
  xmlns:xlink="http://www.w3.org/1999/xlink"
  width="74px" height="68px"
>
  <path fill-rule="evenodd"  fill="rgb(128, 63, 151)"
    d="M-0.005,67.983 L-0.005,19.875 L-0.005,9.576 L22.935,9.576 C23.539,4.199 28.086,0.006 33.590,0.006 L40.392,0.006 C45.896,0.006 50.443,4.199 51.047,9.576 L73.987,9.576 L73.987,19.875 L73.987,67.983 L-0.005,67.983 ZM4.348,63.604 L69.634,63.604 L69.634,31.948 C66.190,36.100 61.009,38.747 55.224,38.747 L45.061,38.747 L45.061,39.515 C45.061,43.659 41.709,47.031 37.589,47.031 L36.393,47.031 C32.272,47.031 28.920,43.659 28.920,39.515 L28.920,38.747 L18.758,38.747 C12.973,38.747 7.792,36.100 4.348,31.948 L4.348,63.604 ZM40.709,39.515 L40.709,38.747 L33.274,38.747 L33.274,39.515 C33.274,41.245 34.673,42.652 36.393,42.652 L37.589,42.652 C39.309,42.652 40.709,41.245 40.709,39.515 ZM40.392,4.384 L33.590,4.384 C30.490,4.384 27.900,6.622 27.333,9.576 L46.649,9.576 C46.081,6.622 43.491,4.384 40.392,4.384 ZM69.634,13.954 L4.348,13.954 L4.348,19.875 C4.348,27.867 10.812,34.369 18.758,34.369 L55.224,34.369 C63.170,34.369 69.634,27.867 69.634,19.875 L69.634,13.954 ZM45.309,56.847 L28.673,56.847 L28.673,52.469 L45.309,52.469 L45.309,56.847 Z"/>
</svg>