<svg 
  xmlns="http://www.w3.org/2000/svg"
  xmlns:xlink="http://www.w3.org/1999/xlink"
  width="31px" height="31px"
>
  <path fill-rule="evenodd"  fill="rgb(255, 255, 255)"
    d="M22.766,16.404 C18.260,16.404 14.594,12.739 14.594,8.234 C14.594,3.722 18.258,0.005 22.766,0.005 C27.284,0.005 30.998,3.733 30.998,8.234 C30.998,12.747 27.272,16.404 22.766,16.404 ZM22.766,1.820 C19.261,1.820 16.410,4.698 16.410,8.234 C16.410,11.738 19.261,14.588 22.766,14.588 C26.303,14.588 29.182,11.738 29.182,8.234 C29.182,4.757 26.244,1.820 22.766,1.820 ZM20.042,7.327 L25.489,7.327 L25.489,9.142 L20.042,9.142 L20.042,7.327 ZM8.238,30.987 C3.719,30.987 0.006,27.259 0.006,22.757 C0.006,18.245 3.731,14.588 8.238,14.588 C12.744,14.588 16.410,18.253 16.410,22.757 C16.410,27.270 12.746,30.987 8.238,30.987 ZM8.238,16.404 C4.700,16.404 1.822,19.254 1.822,22.757 C1.822,26.234 4.760,29.172 8.238,29.172 C11.743,29.172 14.594,26.294 14.594,22.757 C14.594,19.254 11.743,16.404 8.238,16.404 ZM9.146,25.481 L7.330,25.481 L7.330,23.665 L5.514,23.665 L5.514,21.850 L7.330,21.850 L7.330,20.034 L9.146,20.034 L9.146,21.850 L10.962,21.850 L10.962,23.665 L9.146,23.665 L9.146,25.481 ZM10.962,12.773 L5.514,12.773 L5.514,7.327 L2.803,7.327 L8.238,-0.000 L13.674,7.327 L10.962,7.327 L10.962,12.773 ZM8.238,3.047 L6.410,5.511 L7.330,5.511 L7.330,10.957 L9.146,10.957 L9.146,5.511 L10.066,5.511 L8.238,3.047 ZM20.042,18.219 L25.489,18.219 L25.489,23.665 L28.201,23.665 L22.766,30.992 L17.330,23.665 L20.042,23.665 L20.042,18.219 ZM22.766,27.945 L24.594,25.481 L23.674,25.481 L23.674,20.034 L21.858,20.034 L21.858,25.481 L20.938,25.481 L22.766,27.945 Z"/>
</svg>