<svg 
    xmlns="http://www.w3.org/2000/svg"
    xmlns:xlink="http://www.w3.org/1999/xlink"
    width="32px" height="32px"
>
    <path fill-rule="evenodd" fill="rgb(255, 255, 255)"
        d="M15.999,31.993 C7.165,31.993 0.003,24.831 0.003,15.997 C0.003,7.163 7.165,0.001 15.999,0.001 C24.834,0.001 31.995,7.163 31.995,15.997 C31.995,24.831 24.834,31.993 15.999,31.993 ZM15.999,2.857 C8.754,2.857 2.859,8.752 2.859,15.997 C2.859,23.243 8.754,29.137 15.999,29.137 C23.245,29.137 29.140,23.243 29.140,15.997 C29.140,8.752 23.245,2.857 15.999,2.857 ZM23.057,14.823 C23.015,13.906 22.923,13.009 22.786,12.143 L26.077,12.143 C26.402,12.991 26.624,13.889 26.726,14.823 L23.057,14.823 ZM21.232,7.016 C21.123,6.796 21.010,6.588 20.895,6.385 C22.465,7.188 23.812,8.363 24.822,9.794 L22.276,9.794 C21.996,8.792 21.647,7.856 21.232,7.016 ZM17.174,19.851 L17.174,17.172 L20.706,17.172 C20.659,18.118 20.557,19.014 20.408,19.851 L17.174,19.851 ZM17.174,12.143 L20.408,12.143 C20.557,12.980 20.659,13.876 20.706,14.823 L17.174,14.823 L17.174,12.143 ZM17.174,5.596 C18.189,6.257 19.159,7.732 19.829,9.794 L17.174,9.794 L17.174,5.596 ZM17.174,26.398 L17.174,22.200 L19.829,22.200 C19.159,24.263 18.189,25.737 17.174,26.398 ZM22.276,22.200 L24.822,22.200 C23.812,23.631 22.465,24.806 20.895,25.609 C21.010,25.406 21.123,25.198 21.232,24.978 C21.647,24.138 21.996,23.202 22.276,22.200 ZM23.057,17.172 L26.725,17.172 C26.624,18.106 26.402,19.003 26.077,19.851 L22.786,19.851 C22.923,18.985 23.015,18.088 23.057,17.172 ZM12.169,22.200 L14.825,22.200 L14.825,26.398 C13.810,25.737 12.840,24.263 12.169,22.200 ZM11.293,17.172 L14.825,17.172 L14.825,19.851 L11.590,19.851 C11.442,19.014 11.339,18.118 11.293,17.172 ZM11.590,12.143 L14.825,12.143 L14.825,14.823 L11.293,14.823 C11.339,13.876 11.442,12.980 11.590,12.143 ZM14.825,5.596 L14.825,9.794 L12.169,9.794 C12.840,7.732 13.810,6.257 14.825,5.596 ZM7.177,22.200 L9.723,22.200 C10.003,23.202 10.352,24.138 10.767,24.978 C10.875,25.198 10.989,25.406 11.104,25.609 C9.534,24.806 8.186,23.631 7.177,22.200 ZM9.722,9.794 L7.177,9.794 C8.186,8.363 9.534,7.188 11.104,6.385 C10.989,6.588 10.875,6.796 10.767,7.016 C10.352,7.856 10.003,8.792 9.722,9.794 ZM8.942,14.823 L5.273,14.823 C5.375,13.889 5.597,12.991 5.922,12.143 L9.213,12.143 C9.076,13.009 8.984,13.906 8.942,14.823 ZM9.213,19.851 L5.922,19.851 C5.597,19.003 5.375,18.106 5.273,17.172 L8.942,17.172 C8.984,18.088 9.076,18.985 9.213,19.851 Z"/>
</svg>
