<svg 
    xmlns="http://www.w3.org/2000/svg"
    xmlns:xlink="http://www.w3.org/1999/xlink"
    width="28px" height="28px"
>
    <path fill-rule="evenodd"  fill="rgb(255, 255, 255)"
        d="M25.292,27.570 L25.292,21.826 L27.403,21.826 L27.403,27.570 L25.292,27.570 ZM25.292,16.576 L19.038,22.839 L16.436,20.273 L9.317,27.617 L7.800,26.152 L16.402,17.276 L19.026,19.864 L23.855,15.028 L20.541,15.028 L20.541,12.920 L27.403,12.920 L27.403,19.718 L25.292,19.718 L25.292,16.576 ZM11.252,17.858 L11.252,16.350 L8.642,16.350 L8.642,6.931 L11.252,6.931 L11.252,5.423 L12.351,5.423 L12.351,6.931 C12.810,6.940 13.205,7.006 13.536,7.130 C13.867,7.253 14.139,7.422 14.353,7.639 C14.567,7.855 14.725,8.112 14.826,8.409 C14.928,8.705 14.979,9.031 14.979,9.388 C14.979,9.601 14.967,9.800 14.942,9.988 C14.917,10.175 14.873,10.350 14.808,10.511 C14.743,10.672 14.655,10.821 14.542,10.956 C14.430,11.091 14.286,11.211 14.111,11.315 C14.298,11.417 14.462,11.541 14.602,11.689 C14.742,11.837 14.859,12.002 14.951,12.187 C15.044,12.372 15.112,12.569 15.157,12.782 C15.201,12.994 15.224,13.212 15.224,13.437 C15.236,14.371 15.001,15.084 14.519,15.574 C14.037,16.064 13.315,16.323 12.351,16.350 L12.351,17.858 L11.252,17.858 ZM11.252,8.425 L10.383,8.425 L10.383,10.735 L11.252,10.735 L11.252,8.425 ZM11.252,12.173 L10.383,12.173 L10.383,14.870 L11.252,14.870 L11.252,12.173 ZM13.104,9.116 C13.076,9.002 13.031,8.904 12.968,8.821 C12.904,8.738 12.823,8.669 12.723,8.614 C12.623,8.559 12.499,8.514 12.351,8.480 L12.351,10.665 C12.477,10.638 12.590,10.596 12.688,10.541 C12.787,10.486 12.870,10.412 12.937,10.320 C13.005,10.228 13.057,10.116 13.092,9.985 C13.128,9.855 13.145,9.699 13.145,9.518 C13.145,9.364 13.132,9.230 13.104,9.116 ZM13.189,14.495 C13.360,14.278 13.446,13.954 13.446,13.525 C13.446,13.287 13.417,13.091 13.360,12.934 C13.303,12.778 13.224,12.650 13.125,12.552 C13.024,12.453 12.908,12.377 12.776,12.325 C12.643,12.273 12.502,12.235 12.351,12.210 L12.351,14.870 C12.739,14.837 13.018,14.711 13.189,14.495 ZM11.462,2.698 C6.514,2.698 2.489,6.716 2.489,11.656 C2.489,16.203 5.900,19.970 10.302,20.539 L8.560,22.336 C3.851,21.060 0.377,16.755 0.377,11.656 C0.377,5.554 5.350,0.590 11.462,0.590 C17.290,0.590 22.082,5.103 22.515,10.813 L20.395,10.813 C19.968,6.267 16.125,2.698 11.462,2.698 ZM14.735,27.570 L12.623,27.570 L12.623,27.238 L14.735,25.059 L14.735,27.570 ZM18.958,27.570 L16.846,27.570 L16.846,23.640 L18.958,25.723 L18.958,27.570 ZM23.180,27.570 L21.069,27.570 L21.069,23.789 L23.180,21.682 L23.180,27.570 Z"/>
</svg>