<svg 
    xmlns="http://www.w3.org/2000/svg"
    xmlns:xlink="http://www.w3.org/1999/xlink"
    width="26px" height="28px"
>
    <path fill-rule="evenodd"  fill="rgb(255, 255, 255)"
        d="M20.345,27.393 L0.507,27.393 L0.507,0.614 L17.070,0.614 L21.653,5.605 L21.653,17.381 C23.865,17.954 25.501,19.944 25.501,22.305 C25.501,25.110 23.188,27.393 20.345,27.393 ZM17.088,2.973 L17.088,5.127 L19.066,5.127 L17.088,2.973 ZM20.059,6.696 L15.494,6.696 L15.494,2.182 L2.100,2.182 L2.100,25.824 L16.625,25.824 C15.737,24.909 15.190,23.669 15.190,22.305 C15.190,19.593 17.349,17.370 20.059,17.223 L20.059,6.696 ZM20.345,18.784 C18.381,18.784 16.784,20.364 16.784,22.305 C16.784,24.245 18.381,25.824 20.345,25.824 C22.309,25.824 23.907,24.245 23.907,22.305 C23.907,20.364 22.309,18.784 20.345,18.784 ZM19.548,21.520 L21.142,21.520 L21.142,23.089 L19.548,23.089 L19.548,21.520 ZM4.353,19.525 L12.900,19.525 L12.900,21.094 L4.353,21.094 L4.353,19.525 ZM4.353,16.387 L12.900,16.387 L12.900,17.956 L4.353,17.956 L4.353,16.387 ZM4.353,13.222 L12.900,13.222 L12.900,14.792 L4.353,14.792 L4.353,13.222 ZM4.349,8.458 L5.476,7.349 L6.873,8.723 L9.891,5.753 L11.018,6.862 L6.873,10.942 L4.349,8.458 Z"/>
</svg>