<svg 
  xmlns="http://www.w3.org/2000/svg"
  xmlns:xlink="http://www.w3.org/1999/xlink"
  width="22px" height="30px"
>
  <path fill-rule="evenodd"  fill="rgb(255, 255, 255)"
    d="M18.609,26.480 L18.609,29.995 L0.003,29.995 L0.003,3.635 L3.386,3.635 L3.386,0.003 L21.992,0.003 L21.992,26.480 L18.609,26.480 ZM1.695,5.392 L1.695,28.238 L16.917,28.238 L16.917,8.907 L11.843,8.907 L11.843,5.392 L1.695,5.392 ZM14.970,7.149 L13.535,6.155 L13.535,7.149 L14.970,7.149 ZM20.300,1.760 L5.078,1.760 L5.078,3.635 L12.945,3.635 L18.609,7.558 L18.609,24.723 L20.300,24.723 L20.300,1.760 ZM9.639,14.492 C9.639,15.587 8.952,16.366 7.866,16.534 L7.866,17.822 L6.580,17.822 L6.580,16.576 L5.132,16.576 L5.132,9.436 L6.580,9.436 L6.580,7.880 L7.866,7.880 L7.866,9.464 C8.857,9.606 9.435,10.277 9.435,11.319 C9.435,11.963 9.255,12.446 8.897,12.762 C9.395,13.072 9.639,13.644 9.639,14.492 ZM8.062,14.336 C8.062,13.819 7.806,13.522 7.359,13.522 L6.709,13.522 L6.709,15.196 L7.421,15.196 C7.696,15.196 8.062,15.107 8.062,14.336 ZM7.859,11.456 C7.859,10.967 7.689,10.817 7.130,10.817 L6.709,10.817 L6.709,12.197 L7.218,12.197 C7.748,12.197 7.859,11.794 7.859,11.456 ZM15.226,22.966 L3.386,22.966 L3.386,21.208 L15.226,21.208 L15.226,22.966 ZM15.226,26.480 L3.386,26.480 L3.386,24.723 L15.226,24.723 L15.226,26.480 Z"/>
</svg>