<svg 
    xmlns="http://www.w3.org/2000/svg"
    xmlns:xlink="http://www.w3.org/1999/xlink"
    width="79px" height="50px"
>
    <path fill-rule="evenodd"  fill="rgb(255, 255, 255)"
        d="M22.000,11.594 L55.000,11.594 L55.000,41.062 L22.000,41.062 L22.000,11.594 Z"/>
    <path fill-rule="evenodd"  fill="rgb(127, 63, 150)"
        d="M77.361,7.829 C76.451,4.770 73.783,2.359 70.399,1.535 C64.218,0.006 39.492,0.006 39.492,0.006 C39.492,0.006 14.768,0.006 8.587,1.477 C5.268,2.300 2.535,4.770 1.625,7.829 C-0.002,13.415 -0.002,25.000 -0.002,25.000 C-0.002,25.000 -0.002,36.644 1.625,42.172 C2.536,45.230 5.203,47.641 8.587,48.465 C14.833,49.994 39.493,49.994 39.493,49.994 C39.493,49.994 64.218,49.994 70.399,48.523 C73.783,47.700 76.451,45.289 77.362,42.231 C78.988,36.644 78.988,25.059 78.988,25.059 C78.988,25.059 79.053,13.415 77.361,7.829 ZM31.620,35.703 L31.620,14.297 L52.181,25.000 L31.620,35.703 Z"/>
</svg>