<svg 
  xmlns="http://www.w3.org/2000/svg"
  xmlns:xlink="http://www.w3.org/1999/xlink"
  width="27px" height="33px"
>
  <path fill-rule="evenodd"  fill="rgb(255, 255, 255)"
    d="M0.005,32.996 L0.005,0.005 L26.994,0.005 L26.994,32.996 L0.005,32.996 ZM17.342,1.938 L9.657,1.938 L9.657,4.537 L17.342,4.537 L17.342,1.938 ZM25.063,1.938 L19.274,1.938 L19.274,6.470 L7.725,6.470 L7.725,1.938 L1.936,1.938 L1.936,31.063 L25.063,31.063 L25.063,1.938 ZM7.629,11.968 L5.600,11.968 L5.600,10.035 L7.629,10.035 L7.629,11.968 ZM7.629,16.092 L5.600,16.092 L5.600,14.159 L7.629,14.159 L7.629,16.092 ZM7.629,20.216 L5.600,20.216 L5.600,18.283 L7.629,18.283 L7.629,20.216 ZM10.752,26.402 L5.600,26.402 L5.600,24.469 L10.752,24.469 L10.752,26.402 ZM16.247,25.444 L18.999,22.690 L20.365,24.057 L16.247,28.177 L13.503,25.432 L14.869,24.065 L16.247,25.444 ZM9.561,18.283 L21.399,18.283 L21.399,20.216 L9.561,20.216 L9.561,18.283 ZM9.561,14.159 L21.399,14.159 L21.399,16.092 L9.561,16.092 L9.561,14.159 ZM9.561,10.035 L21.399,10.035 L21.399,11.968 L9.561,11.968 L9.561,10.035 Z"/>
</svg>