<svg 
  xmlns="http://www.w3.org/2000/svg"
  xmlns:xlink="http://www.w3.org/1999/xlink"
  width="54px" height="54px"
>
  <path fill-rule="evenodd"  fill="rgb(128, 63, 151)"
    d="M-0.000,-0.000 L-0.000,54.000 L54.000,54.000 L54.000,-0.000 L-0.000,-0.000 ZM18.186,41.835 C15.829,41.835 13.918,39.924 13.918,37.566 C13.918,35.209 15.829,33.297 18.186,33.297 C20.544,33.297 22.455,35.209 22.455,37.566 C22.455,39.924 20.544,41.835 18.186,41.835 ZM32.994,41.835 L28.115,41.835 C27.779,41.835 27.506,41.562 27.506,41.225 C27.506,34.163 21.761,28.419 14.699,28.419 C14.362,28.419 14.089,28.145 14.089,27.809 L14.089,22.930 C14.089,22.594 14.362,22.320 14.699,22.320 C25.123,22.320 33.604,30.801 33.604,41.225 C33.604,41.562 33.331,41.835 32.994,41.835 ZM42.751,41.835 L37.873,41.835 C37.536,41.835 37.263,41.562 37.263,41.225 C37.263,28.783 27.141,18.661 14.699,18.661 C14.362,18.661 14.089,18.388 14.089,18.052 L14.089,13.173 C14.089,12.836 14.362,12.563 14.699,12.563 C30.504,12.563 43.361,25.421 43.361,41.225 C43.361,41.562 43.088,41.835 42.751,41.835 Z"/>
</svg>