<svg 
xmlns="http://www.w3.org/2000/svg"
xmlns:xlink="http://www.w3.org/1999/xlink"
width="22px" height="22px">
    <path fill-rule="evenodd" fill="rgb(255, 255, 255)"
    d="M8.999,18.014 C10.852,18.014 12.564,17.448 13.994,16.495 L19.165,21.670 C19.571,22.076 20.241,22.076 20.665,21.670 L21.671,20.663 C22.076,20.257 22.076,19.586 21.671,19.162 L16.482,14.004 C17.435,12.574 18.000,10.861 18.000,9.006 C18.000,4.043 13.958,-0.001 8.999,-0.001 C4.040,-0.001 -0.002,4.043 -0.002,9.006 C-0.002,13.969 4.022,18.014 8.999,18.014 ZM8.999,3.531 C12.017,3.531 14.470,5.986 14.470,9.006 C14.470,12.026 12.017,14.482 8.999,14.482 C5.981,14.482 3.528,12.026 3.528,9.006 C3.528,5.986 5.981,3.531 8.999,3.531 Z"/>
</svg>
