<svg 
    xmlns="http://www.w3.org/2000/svg"
    xmlns:xlink="http://www.w3.org/1999/xlink"
    width="17px" height="19px"
>
    <path fill-rule="evenodd"  fill="rgb(51, 51, 51)"
        d="M13.327,12.287 C12.447,12.287 11.646,12.638 11.056,13.209 L7.547,11.019 C7.747,10.552 7.858,10.037 7.858,9.497 C7.858,8.956 7.747,8.441 7.547,7.974 L11.056,5.784 C11.646,6.354 12.447,6.706 13.327,6.706 C15.137,6.706 16.609,5.223 16.609,3.401 C16.609,1.578 15.137,0.095 13.327,0.095 C11.518,0.095 10.046,1.578 10.046,3.401 C10.046,3.939 10.174,4.446 10.402,4.896 L6.974,7.034 C6.271,6.184 5.212,5.640 4.030,5.640 C1.919,5.640 0.201,7.370 0.201,9.497 C0.201,11.622 1.919,13.352 4.030,13.352 C5.212,13.352 6.271,12.809 6.974,11.958 L10.402,14.096 C10.174,14.546 10.046,15.054 10.046,15.593 C10.046,17.414 11.518,18.897 13.327,18.897 C15.137,18.897 16.609,17.414 16.609,15.593 C16.609,13.769 15.137,12.287 13.327,12.287 Z"/>
</svg>