<svg 
  xmlns="http://www.w3.org/2000/svg"
  xmlns:xlink="http://www.w3.org/1999/xlink"
  width="74px" height="74px"
>
  <path fill-rule="evenodd"  stroke="rgb(255, 255, 255)" stroke-width="2px" stroke-linecap="butt" stroke-linejoin="miter" fill="none"
    d="M36.500,1.500 C55.830,1.500 71.500,17.170 71.500,36.500 C71.500,55.830 55.830,71.500 36.500,71.500 C17.170,71.500 1.500,55.830 1.500,36.500 C1.500,17.170 17.170,1.500 36.500,1.500 Z"/>
  <path fill-rule="evenodd"  fill="rgb(255, 255, 255)"
    d="M44.193,41.397 C42.637,41.397 41.223,42.014 40.180,43.015 L33.979,39.172 C34.333,38.351 34.530,37.447 34.530,36.499 C34.530,35.550 34.333,34.646 33.979,33.826 L40.180,29.982 C41.223,30.983 42.637,31.600 44.193,31.600 C47.390,31.600 49.991,28.997 49.991,25.798 C49.991,22.600 47.390,19.997 44.193,19.997 C40.996,19.997 38.395,22.600 38.395,25.798 C38.395,26.743 38.622,27.635 39.024,28.424 L32.968,32.178 C31.726,30.683 29.855,29.730 27.765,29.730 C24.035,29.730 21.001,32.767 21.001,36.499 C21.001,40.231 24.035,43.267 27.765,43.267 C29.855,43.267 31.726,42.314 32.968,40.819 L39.024,44.573 C38.622,45.362 38.395,46.254 38.395,47.199 C38.395,50.398 40.996,53.000 44.193,53.000 C47.390,53.000 49.991,50.398 49.991,47.199 C49.991,44.000 47.390,41.397 44.193,41.397 Z"/>
</svg>