<svg 
xmlns="http://www.w3.org/2000/svg"
xmlns:xlink="http://www.w3.org/1999/xlink"
width="23px" height="18px">
    <path fill-rule="evenodd"  fill="rgb(255, 255, 255)"
    d="M22.013,8.190 C20.631,8.310 21.352,6.831 21.370,5.941 C21.421,3.360 19.154,1.567 16.934,1.567 C16.305,1.567 14.844,1.982 15.069,0.692 C15.170,0.124 15.666,0.132 16.161,0.067 C19.896,-0.415 22.714,2.080 22.977,5.378 C23.076,6.623 22.859,8.116 22.013,8.190 ZM17.640,4.503 C16.909,4.170 15.776,4.745 15.776,3.754 C15.776,3.017 16.434,3.094 16.805,3.066 C18.433,2.946 19.636,4.036 19.826,5.378 C19.961,6.329 19.680,7.154 19.119,7.190 C18.183,7.250 18.532,6.566 18.476,5.753 C18.440,5.252 18.013,4.674 17.640,4.503 ZM16.870,5.690 C17.439,6.334 17.221,7.486 16.870,8.376 C18.475,9.229 20.403,9.655 20.084,12.187 C20.007,12.794 19.630,13.605 19.248,14.123 C16.535,17.814 8.351,19.365 3.241,16.560 C1.528,15.619 -0.246,14.242 0.027,11.499 C0.263,9.139 1.896,7.310 3.499,5.752 C5.029,4.265 6.640,3.103 8.834,2.566 C11.215,1.985 11.918,3.913 11.277,5.815 C12.656,5.725 15.578,4.230 16.870,5.690 ZM8.964,7.940 C7.231,8.078 6.066,8.433 4.849,9.127 C3.857,9.693 2.695,10.615 2.407,12.000 C1.757,15.117 5.244,16.582 7.806,16.748 C10.765,16.941 13.727,15.925 15.134,14.373 C15.649,13.807 16.165,12.944 16.162,11.938 C16.156,8.834 12.131,7.686 8.964,7.940 ZM5.235,14.062 C4.362,11.750 6.458,9.911 8.641,9.689 C10.505,9.498 11.895,10.423 12.306,11.625 C13.676,15.648 6.540,17.518 5.235,14.062 ZM7.420,12.375 C5.899,12.720 6.193,14.824 7.870,14.437 C9.070,14.159 9.231,11.963 7.420,12.375 ZM9.027,12.313 C9.317,12.802 9.985,12.450 9.927,12.063 C9.857,11.615 9.021,11.681 9.027,12.313 Z"/>
</svg>
