<svg 
xmlns="http://www.w3.org/2000/svg"
xmlns:xlink="http://www.w3.org/1999/xlink"
width="13px" height="13px">
    <path fill-rule="evenodd"  fill="rgb(255, 255, 255)"
    d="M12.821,13.000 L10.485,12.999 C10.387,12.999 10.307,12.919 10.307,12.820 L10.307,7.994 C10.307,7.577 10.138,7.199 9.866,6.926 C9.589,6.648 9.205,6.479 8.782,6.483 C7.953,6.493 7.292,7.183 7.292,8.013 L7.292,12.820 C7.292,12.919 7.212,12.999 7.114,12.999 L4.783,12.998 C4.685,12.998 4.605,12.918 4.605,12.819 L4.605,4.500 C4.605,4.401 4.685,4.321 4.784,4.321 L7.064,4.321 C7.163,4.321 7.243,4.401 7.243,4.500 L7.243,5.459 C7.243,5.459 7.252,5.460 7.267,5.462 C7.311,5.382 7.359,5.305 7.411,5.230 C7.886,4.547 8.676,4.099 9.571,4.099 L10.040,4.099 C11.675,4.099 13.000,5.428 13.000,7.066 L13.000,12.821 C13.000,12.920 12.920,13.000 12.821,13.000 ZM1.559,3.125 C0.729,3.142 -0.000,2.447 0.000,1.561 C0.000,0.701 0.706,-0.000 1.570,0.001 C2.423,0.001 3.127,0.707 3.125,1.567 C3.123,2.467 2.378,3.145 1.559,3.125 ZM0.648,4.321 L2.476,4.321 C2.714,4.321 2.906,4.514 2.906,4.751 L2.906,12.568 C2.906,12.805 2.714,12.998 2.476,12.998 L0.648,12.998 C0.411,12.998 0.219,12.805 0.219,12.567 L0.219,4.751 C0.219,4.514 0.411,4.321 0.648,4.321 Z"/>
</svg>
