<svg 
  xmlns="http://www.w3.org/2000/svg"
  xmlns:xlink="http://www.w3.org/1999/xlink"
  width="32px" height="32px"
>
  <path fill-rule="evenodd"  fill="rgb(255, 255, 255)"
    d="M0.004,31.992 L0.004,30.117 L1.941,30.117 L1.941,20.620 L7.565,20.620 L7.565,30.117 L9.439,30.117 L9.439,14.996 L15.063,14.996 L15.063,30.117 L16.937,30.117 L16.937,18.745 L22.561,18.745 L22.561,30.117 L24.435,30.117 L24.435,11.247 L30.059,11.247 L30.059,30.117 L31.996,30.117 L31.996,31.992 L0.004,31.992 ZM5.690,22.494 L3.816,22.494 L3.816,30.117 L5.690,30.117 L5.690,22.494 ZM13.188,16.871 L11.314,16.871 L11.314,30.117 L13.188,30.117 L13.188,16.871 ZM20.686,20.620 L18.812,20.620 L18.812,30.117 L20.686,30.117 L20.686,20.620 ZM28.184,13.122 L26.310,13.122 L26.310,30.117 L28.184,30.117 L28.184,13.122 ZM30.121,3.191 L19.747,13.508 L12.249,6.010 L1.602,16.598 L0.281,15.269 L12.253,3.363 L19.751,10.861 L28.787,1.875 L24.435,1.875 L24.435,0.000 L31.996,0.000 L31.996,7.498 L30.121,7.498 L30.121,3.191 Z"/>
</svg>