<svg 
    xmlns="http://www.w3.org/2000/svg"
    xmlns:xlink="http://www.w3.org/1999/xlink"
    width="33px" height="23px"
>
    <path fill-rule="evenodd"  fill="rgb(255, 255, 255)"
        d="M16.024,23.002 C16.021,23.002 16.018,23.002 16.015,23.002 C15.050,22.995 6.523,22.918 4.107,22.267 C2.418,21.815 1.085,20.490 0.630,18.807 C-0.002,16.444 0.038,11.893 0.042,11.530 C0.038,11.168 -0.002,6.580 0.628,4.197 C0.629,4.195 0.629,4.192 0.630,4.190 C1.080,2.527 2.443,1.161 4.102,0.707 C4.107,0.706 4.111,0.705 4.115,0.704 C6.504,0.079 15.048,0.002 16.015,-0.005 L16.032,-0.005 C16.999,0.002 25.550,0.080 27.944,0.731 C29.628,1.182 30.960,2.506 31.416,4.186 C32.072,6.571 32.011,11.169 32.005,11.557 C32.009,11.939 32.047,16.449 31.419,18.825 C31.418,18.827 31.418,18.829 31.417,18.831 C30.962,20.513 29.629,21.839 27.939,22.292 C27.936,22.292 27.934,22.293 27.932,22.294 C25.543,22.919 16.999,22.995 16.032,23.002 C16.029,23.002 16.026,23.002 16.024,23.002 ZM3.042,4.835 C2.487,6.938 2.540,11.468 2.540,11.514 L2.540,11.546 C2.523,12.803 2.582,16.440 3.042,18.164 C3.266,18.989 3.923,19.642 4.757,19.866 C6.539,20.346 13.485,20.497 16.024,20.515 C18.569,20.497 25.524,20.350 27.294,19.889 C28.125,19.665 28.780,19.014 29.005,18.188 C29.466,16.439 29.524,12.819 29.507,11.570 C29.507,11.558 29.507,11.545 29.507,11.531 C29.530,10.260 29.485,6.579 29.007,4.842 C29.006,4.841 29.006,4.839 29.006,4.837 C28.781,4.009 28.124,3.355 27.290,3.132 C25.525,2.651 18.568,2.500 16.024,2.482 C13.480,2.500 6.531,2.647 4.756,3.108 C3.938,3.334 3.266,4.010 3.042,4.835 ZM30.211,18.508 L30.212,18.508 L30.211,18.508 ZM12.840,16.535 L12.840,6.462 L21.582,11.499 L12.840,16.535 Z"/>
</svg>